# xmcd
#
# Track frame offsets: 
#        150
#        10934
#        24312
#        38732
#        48580
#        57198
#        70168
#        81823
#        91788
#        101336
#        111758
#        120324
#        132650
#        143673
#        154882
#        175778
#        190320
#        202325
#        215025
#        224726
#        236455
#        248365
#        261685
#        270983
#        281910
#        292500
#
# Disc length: 4052 seconds
#
# Revision: 1
# Processed by: cddbd v1.5.2PL0 Copyright (c) Steve Scherf et al.
# Submitted via: ExactAudioCopy v1.0b1
#
DISCID=7c0fd21a
DTITLE=The Coasters - There's A Riot Goin' On: The Coasters On Atco (D
DTITLE=isc 3)
DYEAR=2007
DGENRE=R&B
TTITLE0=Thumbin' A Ride (mono)
TTITLE1=Shoppin' For Clothes (stereo)
TTITLE2=Ridin' Hood (stereo)
TTITLE3=Girls Girls Girls (Part 1) (mono)
TTITLE4=Girls Girls Girls (Part 2) (mono)
TTITLE5=Little Egypt (Ying-Yang) (mono)
TTITLE6=Hongry (mono)
TTITLE7=Teach Me How To Shimmy (mono)
TTITLE8=My Babe (stereo)
TTITLE9=Bad Blood (mono)
TTITLE10=(Ain't That) Just Like Me (stereo)
TTITLE11=The Climb (stereo)
TTITLE12=Bull Tick Waltz (mono)
TTITLE13=The P.T.A. (mono)
TTITLE14=T'Aint Nothin' To Me (live) (stereo)
TTITLE15=Speedo's Back In Town (live) (stereo)
TTITLE16=Bad Detective (mono)
TTITLE17=Lovey Dovey (mono)
TTITLE18=Wild One (mono)
TTITLE19=I Must Be Dreamin' (1964) (mono)
TTITLE20=Money Honey (mono)
TTITLE21=Let's Go Get Stoned (mono)
TTITLE22=Crazy Baby (mono)
TTITLE23=Bell Bottom Slacks And A Chinese Kimono (mono)
TTITLE24=She's A Yum Yum (mono)
TTITLE25=Saturday Night Fish Fry (mono)
EXTD=
EXTT0=
EXTT1=
EXTT2=
EXTT3=
EXTT4=
EXTT5=
EXTT6=
EXTT7=
EXTT8=
EXTT9=
EXTT10=
EXTT11=
EXTT12=
EXTT13=
EXTT14=
EXTT15=
EXTT16=
EXTT17=
EXTT18=
EXTT19=
EXTT20=
EXTT21=
EXTT22=
EXTT23=
EXTT24=
EXTT25=
PLAYORDER=
